<svg width="828" height="343" viewBox="0 0 828 343" fill="none" xmlns="http://www.w3.org/2000/svg">
<rect x="0.500244" y="1.06897" width="827" height="341" stroke="#ECECEC"/>
<path d="M153.329 116.17H191.34C215.468 116.17 231 135.63 231 162.286C231 176.939 226.069 189.819 216.593 197.785C209.891 203.347 201.186 206.506 189.815 206.506H153.329V116.17ZM188.551 190.713C205.731 190.713 212.433 180.22 212.433 162.286C212.433 144.351 204.606 131.84 189.06 131.84H171.649V190.713H188.551Z" fill="black"/>
<path d="M233.742 174.15C233.742 154.828 247.516 139.914 267.593 139.914C287.684 139.914 301.444 154.813 301.444 174.15C301.444 193.471 287.669 208.386 267.593 208.386C247.501 208.386 233.742 193.486 233.742 174.15ZM284.017 174.15C284.017 161.515 278.085 152.933 267.593 152.933C256.977 152.933 251.168 161.531 251.168 174.15C251.168 186.784 256.977 195.243 267.593 195.243C278.07 195.258 284.017 186.784 284.017 174.15Z" fill="black"/>
<path d="M304.972 174.15C304.972 154.828 317.606 139.914 337.313 139.914C354.107 139.914 364.477 149.636 366.742 163.657H349.947C348.807 157.972 344.385 153.673 338.068 153.673C327.714 153.673 322.398 161.639 322.398 174.134C322.398 186.384 327.329 194.596 337.806 194.596C344.755 194.596 349.685 190.929 350.81 183.61H367.358C366.218 197.385 355.478 208.37 338.176 208.37C317.73 208.386 304.972 193.486 304.972 174.15Z" fill="black"/>
<path d="M412.811 206.491V198.91H412.426C408.004 204.842 402.95 208.262 393.859 208.262C379.453 208.262 371.379 199.033 371.379 184.889V141.686H388.436V181.977C388.436 189.557 391.841 193.718 399.175 193.718C407.264 193.718 412.194 187.647 412.194 179.065V141.67H429.374V206.475H412.811V206.491Z" fill="black"/>
<path d="M513.053 116.571H530.233V132.641H513.053V116.571ZM513.053 141.686H530.233V206.491H513.053V141.686Z" fill="black"/>
<path d="M537.367 208.386H554.423C555.81 212.423 559.477 215.581 567.443 215.581C577.165 215.581 581.849 210.913 581.849 202.069V194.996H581.464C577.673 199.295 572.743 202.577 564.531 202.577C550.124 202.577 535.98 191.206 535.98 171.623C535.98 152.302 547.597 139.914 564.022 139.914C572.111 139.914 578.043 143.072 581.957 148.511H582.203V141.686H598.751V201.56C598.751 210.651 595.839 216.845 591.047 221.267C585.608 226.32 577.273 228.601 567.674 228.601C550.001 228.601 539.139 221.02 537.367 208.386ZM582.712 171.253C582.712 161.777 577.658 153.688 567.304 153.688C558.583 153.688 552.774 160.514 552.774 171.376C552.774 182.362 558.583 188.803 567.427 188.803C578.305 188.818 582.712 180.852 582.712 171.253Z" fill="black"/>
<path d="M622.926 150.53H623.311C627.733 143.581 633.665 139.914 642.509 139.914C655.898 139.914 664.866 150.021 664.866 164.166V206.491H647.686V166.692C647.686 159.744 643.649 154.813 636.438 154.813C628.858 154.813 623.296 160.884 623.296 169.712V206.475H606.116V141.67H622.91V150.53H622.926Z" fill="black"/>
<path d="M473.903 152.055C460.513 149.143 454.196 147.001 454.196 139.683C454.196 133.242 460.636 129.067 470.497 129.067C479.496 129.067 486.352 133.288 487.77 141.701H505.396C503.609 124.152 490.589 114.537 470.621 114.537C450.529 114.537 436 123.766 436 141.578C436 160.406 450.776 164.689 466.954 168.356C480.728 171.515 489.31 173.287 489.31 182.131C489.31 190.467 481.098 193.748 471.745 193.748C458.865 193.748 452.671 189.45 451.407 178.587H433.473C434.104 197.662 448.002 208.524 472.5 208.524C492.839 208.524 507.615 198.294 507.615 179.974C507.63 160.514 492.469 156.092 473.903 152.055Z" fill="black"/>
<path d="M671.845 153.657C668.07 153.657 665.02 150.591 665.02 146.832C665.02 143.057 668.086 140.006 671.845 140.006C675.605 140.006 678.671 143.072 678.671 146.832C678.671 150.591 675.605 153.657 671.845 153.657ZM671.845 141.069C668.671 141.069 666.083 143.658 666.083 146.832C666.083 150.006 668.671 152.594 671.845 152.594C675.019 152.594 677.608 150.006 677.608 146.832C677.608 143.658 675.019 141.069 671.845 141.069Z" fill="black"/>
<path d="M669.488 143.319H671.722C672.647 143.335 673.278 143.335 673.895 143.828C674.326 144.182 674.665 144.737 674.665 145.553C674.665 146.894 673.679 147.356 673.294 147.479L674.85 150.314H673.355L671.969 147.726H670.798V150.314H669.503V143.319H669.488ZM670.782 144.444V146.632H671.245C671.691 146.632 671.861 146.616 672.107 146.616C672.4 146.601 673.34 146.555 673.34 145.538C673.34 145.384 673.325 144.875 672.785 144.598C672.508 144.459 672.169 144.444 671.399 144.444H670.782Z" fill="black"/>
</svg>
